<svg xmlns="http://www.w3.org/2000/svg" xmlns:xlink="http://www.w3.org/1999/xlink" width="300" zoomAndPan="magnify" viewBox="0 0 224.87999 225" height="300" preserveAspectRatio="xMidYMid meet" version="1.0"><defs><g/><clipPath id="1ad1be4c45"><path d="M 2 2 L 222.953125 2 L 222.953125 223 L 2 223 Z M 2 2 " clip-rule="nonzero"/></clipPath></defs><path fill="#1f3aff" d="M 17.257812 146.15625 L 17.257812 167.03125 L 15.125 169.160156 C 14.78125 169.503906 14.410156 169.808594 14.007812 170.078125 C 13.605469 170.347656 13.179688 170.574219 12.730469 170.761719 C 12.285156 170.945312 11.824219 171.085938 11.347656 171.179688 C 10.871094 171.273438 10.394531 171.320312 9.90625 171.320312 C 9.421875 171.320312 8.945312 171.273438 8.46875 171.179688 C 7.992188 171.085938 7.53125 170.945312 7.085938 170.757812 C 6.636719 170.574219 6.210938 170.347656 5.808594 170.078125 C 5.40625 169.808594 5.035156 169.5 4.691406 169.160156 C 4.347656 168.816406 4.042969 168.445312 3.773438 168.042969 C 3.503906 167.636719 3.277344 167.214844 3.09375 166.765625 C 2.90625 166.320312 2.765625 165.855469 2.671875 165.382812 C 2.578125 164.90625 2.53125 164.425781 2.53125 163.941406 C 2.53125 163.457031 2.578125 162.980469 2.671875 162.503906 C 2.765625 162.027344 2.90625 161.566406 3.089844 161.121094 C 3.277344 160.671875 3.503906 160.246094 3.773438 159.84375 C 4.042969 159.441406 4.347656 159.066406 4.6875 158.726562 Z M 17.257812 146.15625 " fill-opacity="1" fill-rule="nonzero"/><g clip-path="url(#1ad1be4c45)"><path fill="#1f3aff" d="M 201 2.25 L 24.605469 2.25 C 23.886719 2.253906 23.164062 2.289062 22.449219 2.363281 C 21.730469 2.433594 21.015625 2.542969 20.308594 2.683594 C 19.601562 2.828125 18.902344 3.003906 18.214844 3.214844 C 17.523438 3.425781 16.84375 3.667969 16.179688 3.945312 C 15.511719 4.222656 14.863281 4.53125 14.226562 4.875 C 13.589844 5.214844 12.972656 5.585938 12.371094 5.988281 C 11.773438 6.386719 11.195312 6.816406 10.636719 7.273438 C 10.078125 7.734375 9.546875 8.21875 9.035156 8.726562 C 8.523438 9.238281 8.039062 9.773438 7.582031 10.328125 C 7.125 10.886719 6.695312 11.464844 6.292969 12.066406 C 5.894531 12.664062 5.523438 13.28125 5.179688 13.917969 C 4.839844 14.554688 4.53125 15.207031 4.253906 15.871094 C 3.976562 16.539062 3.734375 17.214844 3.523438 17.90625 C 3.3125 18.597656 3.132812 19.296875 2.992188 20.003906 C 2.851562 20.710938 2.742188 21.421875 2.667969 22.140625 C 2.597656 22.859375 2.558594 23.578125 2.558594 24.300781 L 2.558594 200.691406 C 2.558594 201.414062 2.597656 202.132812 2.667969 202.851562 C 2.742188 203.570312 2.851562 204.28125 2.992188 204.988281 C 3.132812 205.695312 3.3125 206.394531 3.523438 207.085938 C 3.734375 207.773438 3.976562 208.453125 4.253906 209.121094 C 4.53125 209.785156 4.839844 210.4375 5.179688 211.074219 C 5.523438 211.707031 5.894531 212.328125 6.292969 212.925781 C 6.695312 213.527344 7.125 214.105469 7.582031 214.660156 C 8.039062 215.21875 8.523438 215.753906 9.035156 216.265625 C 9.546875 216.773438 10.078125 217.257812 10.636719 217.714844 C 11.195312 218.175781 11.773438 218.605469 12.371094 219.003906 C 12.972656 219.40625 13.589844 219.777344 14.226562 220.117188 C 14.863281 220.457031 15.511719 220.769531 16.179688 221.046875 C 16.84375 221.320312 17.523438 221.566406 18.214844 221.777344 C 18.902344 221.988281 19.601562 222.164062 20.308594 222.304688 C 21.015625 222.449219 21.730469 222.554688 22.449219 222.628906 C 23.164062 222.703125 23.886719 222.738281 24.605469 222.742188 L 201 222.742188 C 201.722656 222.738281 202.441406 222.703125 203.160156 222.628906 C 203.875 222.554688 204.589844 222.449219 205.296875 222.304688 C 206.003906 222.164062 206.703125 221.988281 207.394531 221.777344 C 208.082031 221.566406 208.761719 221.320312 209.425781 221.046875 C 210.09375 220.769531 210.746094 220.457031 211.378906 220.117188 C 212.015625 219.777344 212.632812 219.40625 213.234375 219.003906 C 213.832031 218.605469 214.410156 218.175781 214.96875 217.714844 C 215.527344 217.257812 216.0625 216.773438 216.570312 216.265625 C 217.082031 215.753906 217.566406 215.21875 218.023438 214.660156 C 218.480469 214.105469 218.910156 213.527344 219.3125 212.925781 C 219.714844 212.328125 220.085938 211.707031 220.425781 211.074219 C 220.765625 210.4375 221.074219 209.785156 221.351562 209.121094 C 221.628906 208.453125 221.875 207.773438 222.085938 207.085938 C 222.296875 206.394531 222.472656 205.695312 222.613281 204.988281 C 222.757812 204.28125 222.863281 203.570312 222.9375 202.851562 C 223.007812 202.132812 223.046875 201.414062 223.046875 200.691406 L 223.046875 24.300781 C 223.046875 23.578125 223.007812 22.859375 222.9375 22.140625 C 222.863281 21.421875 222.757812 20.710938 222.613281 20.003906 C 222.472656 19.296875 222.296875 18.597656 222.085938 17.90625 C 221.875 17.214844 221.628906 16.539062 221.351562 15.871094 C 221.074219 15.207031 220.765625 14.554688 220.425781 13.917969 C 220.085938 13.28125 219.714844 12.664062 219.3125 12.066406 C 218.910156 11.464844 218.480469 10.886719 218.023438 10.328125 C 217.566406 9.773438 217.082031 9.238281 216.570312 8.726562 C 216.0625 8.21875 215.527344 7.734375 214.96875 7.273438 C 214.410156 6.816406 213.832031 6.386719 213.234375 5.988281 C 212.632812 5.585938 212.015625 5.214844 211.378906 4.875 C 210.746094 4.53125 210.09375 4.222656 209.425781 3.945312 C 208.761719 3.667969 208.082031 3.425781 207.390625 3.214844 C 206.703125 3.003906 206.003906 2.828125 205.296875 2.683594 C 204.589844 2.542969 203.875 2.433594 203.160156 2.363281 C 202.441406 2.289062 201.722656 2.253906 201 2.25 Z M 208.347656 112.496094 L 161.3125 77.21875 C 160.960938 76.953125 160.589844 76.71875 160.195312 76.519531 C 159.804688 76.324219 159.398438 76.160156 158.976562 76.035156 C 158.554688 75.910156 158.125 75.820312 157.6875 75.773438 C 157.25 75.726562 156.8125 75.714844 156.375 75.746094 C 155.933594 75.777344 155.5 75.84375 155.074219 75.953125 C 154.648438 76.0625 154.234375 76.207031 153.835938 76.386719 C 153.433594 76.570312 153.054688 76.785156 152.691406 77.035156 C 152.332031 77.289062 151.996094 77.566406 151.683594 77.878906 L 106.703125 122.859375 L 203.375 207.554688 C 202.609375 207.855469 201.820312 208.015625 201 208.042969 L 181.667969 208.042969 L 66.207031 106.984375 C 65.859375 106.675781 65.488281 106.402344 65.089844 106.164062 C 64.691406 105.929688 64.273438 105.730469 63.835938 105.574219 C 63.398438 105.414062 62.953125 105.296875 62.496094 105.222656 C 62.039062 105.152344 61.578125 105.121094 61.113281 105.132812 C 60.648438 105.148438 60.191406 105.203125 59.738281 105.304688 C 59.285156 105.40625 58.847656 105.546875 58.421875 105.730469 C 57.996094 105.914062 57.589844 106.136719 57.207031 106.394531 C 56.820312 106.65625 56.464844 106.949219 56.136719 107.277344 L 17.257812 146.15625 L 17.257812 24.300781 C 17.257812 23.816406 17.304688 23.339844 17.398438 22.867188 C 17.492188 22.390625 17.632812 21.933594 17.816406 21.488281 C 18 21.039062 18.226562 20.617188 18.496094 20.214844 C 18.765625 19.816406 19.070312 19.445312 19.410156 19.101562 C 19.75 18.761719 20.121094 18.457031 20.523438 18.1875 C 20.925781 17.921875 21.347656 17.695312 21.792969 17.507812 C 22.238281 17.324219 22.699219 17.183594 23.171875 17.089844 C 23.644531 16.996094 24.125 16.949219 24.605469 16.949219 L 201 16.949219 C 201.480469 16.949219 201.960938 16.996094 202.433594 17.089844 C 202.90625 17.183594 203.367188 17.324219 203.8125 17.507812 C 204.257812 17.695312 204.679688 17.921875 205.082031 18.1875 C 205.484375 18.457031 205.855469 18.761719 206.195312 19.101562 C 206.539062 19.445312 206.84375 19.816406 207.109375 20.214844 C 207.378906 20.617188 207.605469 21.039062 207.789062 21.488281 C 207.972656 21.933594 208.113281 22.390625 208.207031 22.867188 C 208.300781 23.339844 208.347656 23.816406 208.347656 24.300781 Z M 208.347656 112.496094 " fill-opacity="1" fill-rule="nonzero"/></g><path fill="#1f3aff" d="M 105.453125 61.046875 C 105.453125 62.011719 105.40625 62.972656 105.3125 63.929688 C 105.21875 64.886719 105.078125 65.839844 104.886719 66.785156 C 104.699219 67.726562 104.46875 68.660156 104.1875 69.582031 C 103.90625 70.503906 103.585938 71.410156 103.214844 72.296875 C 102.847656 73.1875 102.4375 74.058594 101.980469 74.90625 C 101.527344 75.753906 101.035156 76.582031 100.5 77.382812 C 99.964844 78.179688 99.390625 78.953125 98.78125 79.699219 C 98.167969 80.441406 97.523438 81.15625 96.84375 81.835938 C 96.160156 82.515625 95.449219 83.164062 94.703125 83.773438 C 93.960938 84.382812 93.1875 84.957031 92.386719 85.492188 C 91.585938 86.027344 90.761719 86.519531 89.914062 86.976562 C 89.0625 87.429688 88.195312 87.839844 87.304688 88.207031 C 86.414062 88.578125 85.511719 88.902344 84.589844 89.179688 C 83.667969 89.460938 82.734375 89.695312 81.789062 89.882812 C 80.847656 90.070312 79.894531 90.210938 78.9375 90.304688 C 77.976562 90.398438 77.015625 90.445312 76.054688 90.445312 C 75.09375 90.445312 74.132812 90.398438 73.171875 90.304688 C 72.214844 90.210938 71.261719 90.070312 70.320312 89.882812 C 69.375 89.695312 68.441406 89.460938 67.519531 89.179688 C 66.597656 88.902344 65.695312 88.578125 64.804688 88.207031 C 63.914062 87.839844 63.046875 87.429688 62.195312 86.976562 C 61.347656 86.519531 60.523438 86.027344 59.722656 85.492188 C 58.921875 84.957031 58.148438 84.382812 57.402344 83.773438 C 56.660156 83.164062 55.949219 82.515625 55.265625 81.835938 C 54.585938 81.15625 53.941406 80.441406 53.328125 79.699219 C 52.71875 78.953125 52.144531 78.179688 51.609375 77.382812 C 51.074219 76.582031 50.582031 75.753906 50.128906 74.90625 C 49.671875 74.058594 49.261719 73.1875 48.894531 72.296875 C 48.523438 71.410156 48.203125 70.503906 47.921875 69.582031 C 47.640625 68.660156 47.410156 67.726562 47.222656 66.785156 C 47.03125 65.839844 46.890625 64.886719 46.796875 63.929688 C 46.703125 62.972656 46.65625 62.011719 46.65625 61.046875 C 46.65625 60.085938 46.703125 59.125 46.796875 58.167969 C 46.890625 57.207031 47.03125 56.257812 47.222656 55.3125 C 47.410156 54.367188 47.640625 53.433594 47.921875 52.515625 C 48.203125 51.59375 48.523438 50.6875 48.894531 49.796875 C 49.261719 48.90625 49.671875 48.039062 50.128906 47.1875 C 50.582031 46.339844 51.074219 45.515625 51.609375 44.714844 C 52.144531 43.914062 52.71875 43.140625 53.328125 42.398438 C 53.941406 41.652344 54.585938 40.941406 55.265625 40.257812 C 55.949219 39.578125 56.660156 38.933594 57.402344 38.320312 C 58.148438 37.710938 58.921875 37.136719 59.722656 36.605469 C 60.523438 36.070312 61.347656 35.574219 62.195312 35.121094 C 63.046875 34.667969 63.914062 34.253906 64.804688 33.886719 C 65.695312 33.519531 66.597656 33.195312 67.519531 32.914062 C 68.441406 32.636719 69.375 32.402344 70.320312 32.214844 C 71.261719 32.027344 72.214844 31.886719 73.171875 31.789062 C 74.132812 31.695312 75.09375 31.648438 76.054688 31.648438 C 77.015625 31.648438 77.976562 31.695312 78.9375 31.789062 C 79.894531 31.886719 80.847656 32.027344 81.789062 32.214844 C 82.734375 32.402344 83.667969 32.636719 84.589844 32.914062 C 85.511719 33.195312 86.414062 33.519531 87.304688 33.886719 C 88.195312 34.253906 89.0625 34.667969 89.914062 35.121094 C 90.761719 35.574219 91.585938 36.070312 92.386719 36.605469 C 93.1875 37.136719 93.960938 37.710938 94.703125 38.320312 C 95.449219 38.933594 96.160156 39.578125 96.84375 40.257812 C 97.523438 40.941406 98.167969 41.652344 98.78125 42.398438 C 99.390625 43.140625 99.964844 43.914062 100.5 44.714844 C 101.035156 45.515625 101.527344 46.339844 101.980469 47.1875 C 102.4375 48.039062 102.847656 48.90625 103.214844 49.796875 C 103.585938 50.6875 103.90625 51.59375 104.1875 52.515625 C 104.46875 53.433594 104.699219 54.367188 104.886719 55.3125 C 105.078125 56.257812 105.21875 57.207031 105.3125 58.167969 C 105.40625 59.125 105.453125 60.085938 105.453125 61.046875 Z M 105.453125 61.046875 " fill-opacity="1" fill-rule="nonzero"/><g fill="#1f3aff" fill-opacity="1"><g transform="translate(48.857245, 165.864899)"><g><path d="M 2.984375 -4.6875 L 3.609375 -4.6875 C 4.179688 -4.6875 4.609375 -4.796875 4.890625 -5.015625 C 5.179688 -5.242188 5.328125 -5.578125 5.328125 -6.015625 C 5.328125 -6.453125 5.207031 -6.773438 4.96875 -6.984375 C 4.726562 -7.203125 4.351562 -7.3125 3.84375 -7.3125 L 2.984375 -7.3125 Z M 7.21875 -6.09375 C 7.21875 -5.132812 6.921875 -4.398438 6.328125 -3.890625 C 5.734375 -3.390625 4.890625 -3.140625 3.796875 -3.140625 L 2.984375 -3.140625 L 2.984375 0 L 1.109375 0 L 1.109375 -8.84375 L 3.9375 -8.84375 C 5.007812 -8.84375 5.820312 -8.609375 6.375 -8.140625 C 6.9375 -7.679688 7.21875 -7 7.21875 -6.09375 Z M 7.21875 -6.09375 "/></g></g><g transform="translate(56.63529, 165.864899)"><g><path d="M 4.75 -6.890625 C 5 -6.890625 5.203125 -6.875 5.359375 -6.84375 L 5.234375 -5.109375 C 5.078125 -5.148438 4.894531 -5.171875 4.6875 -5.171875 C 4.09375 -5.171875 3.628906 -5.019531 3.296875 -4.71875 C 2.972656 -4.414062 2.8125 -3.988281 2.8125 -3.4375 L 2.8125 0 L 0.96875 0 L 0.96875 -6.765625 L 2.359375 -6.765625 L 2.640625 -5.625 L 2.734375 -5.625 C 2.941406 -6.007812 3.222656 -6.316406 3.578125 -6.546875 C 3.929688 -6.773438 4.320312 -6.890625 4.75 -6.890625 Z M 4.75 -6.890625 "/></g></g><g transform="translate(62.260159, 165.864899)"><g><path d="M 3.765625 -5.578125 C 3.378906 -5.578125 3.070312 -5.453125 2.84375 -5.203125 C 2.625 -4.953125 2.5 -4.601562 2.46875 -4.15625 L 5.0625 -4.15625 C 5.050781 -4.601562 4.929688 -4.953125 4.703125 -5.203125 C 4.472656 -5.453125 4.160156 -5.578125 3.765625 -5.578125 Z M 4.03125 0.125 C 2.9375 0.125 2.082031 -0.175781 1.46875 -0.78125 C 0.863281 -1.382812 0.5625 -2.234375 0.5625 -3.328125 C 0.5625 -4.460938 0.84375 -5.335938 1.40625 -5.953125 C 1.96875 -6.578125 2.75 -6.890625 3.75 -6.890625 C 4.707031 -6.890625 5.453125 -6.613281 5.984375 -6.0625 C 6.515625 -5.519531 6.78125 -4.769531 6.78125 -3.8125 L 6.78125 -2.921875 L 2.421875 -2.921875 C 2.441406 -2.398438 2.597656 -1.988281 2.890625 -1.6875 C 3.179688 -1.394531 3.585938 -1.25 4.109375 -1.25 C 4.515625 -1.25 4.898438 -1.289062 5.265625 -1.375 C 5.628906 -1.457031 6.007812 -1.59375 6.40625 -1.78125 L 6.40625 -0.359375 C 6.082031 -0.191406 5.738281 -0.0703125 5.375 0 C 5.007812 0.0820312 4.5625 0.125 4.03125 0.125 Z M 4.03125 0.125 "/></g></g><g transform="translate(69.578537, 165.864899)"><g><path d="M 2.578125 0 L 0 -6.765625 L 1.9375 -6.765625 L 3.234375 -2.90625 C 3.378906 -2.414062 3.472656 -1.957031 3.515625 -1.53125 L 3.546875 -1.53125 C 3.566406 -1.914062 3.65625 -2.375 3.8125 -2.90625 L 5.125 -6.765625 L 7.046875 -6.765625 L 4.46875 0 Z M 2.578125 0 "/></g></g><g transform="translate(76.624744, 165.864899)"><g><path d="M 0.890625 -8.515625 C 0.890625 -9.109375 1.222656 -9.40625 1.890625 -9.40625 C 2.554688 -9.40625 2.890625 -9.109375 2.890625 -8.515625 C 2.890625 -8.222656 2.804688 -8 2.640625 -7.84375 C 2.472656 -7.6875 2.222656 -7.609375 1.890625 -7.609375 C 1.222656 -7.609375 0.890625 -7.910156 0.890625 -8.515625 Z M 2.8125 0 L 0.96875 0 L 0.96875 -6.765625 L 2.8125 -6.765625 Z M 2.8125 0 "/></g></g><g transform="translate(80.404898, 165.864899)"><g><path d="M 3.765625 -5.578125 C 3.378906 -5.578125 3.070312 -5.453125 2.84375 -5.203125 C 2.625 -4.953125 2.5 -4.601562 2.46875 -4.15625 L 5.0625 -4.15625 C 5.050781 -4.601562 4.929688 -4.953125 4.703125 -5.203125 C 4.472656 -5.453125 4.160156 -5.578125 3.765625 -5.578125 Z M 4.03125 0.125 C 2.9375 0.125 2.082031 -0.175781 1.46875 -0.78125 C 0.863281 -1.382812 0.5625 -2.234375 0.5625 -3.328125 C 0.5625 -4.460938 0.84375 -5.335938 1.40625 -5.953125 C 1.96875 -6.578125 2.75 -6.890625 3.75 -6.890625 C 4.707031 -6.890625 5.453125 -6.613281 5.984375 -6.0625 C 6.515625 -5.519531 6.78125 -4.769531 6.78125 -3.8125 L 6.78125 -2.921875 L 2.421875 -2.921875 C 2.441406 -2.398438 2.597656 -1.988281 2.890625 -1.6875 C 3.179688 -1.394531 3.585938 -1.25 4.109375 -1.25 C 4.515625 -1.25 4.898438 -1.289062 5.265625 -1.375 C 5.628906 -1.457031 6.007812 -1.59375 6.40625 -1.78125 L 6.40625 -0.359375 C 6.082031 -0.191406 5.738281 -0.0703125 5.375 0 C 5.007812 0.0820312 4.5625 0.125 4.03125 0.125 Z M 4.03125 0.125 "/></g></g><g transform="translate(87.723276, 165.864899)"><g><path d="M 6.53125 0 L 6 -2.359375 L 5.3125 -5.359375 L 5.265625 -5.359375 L 4.03125 0 L 2.046875 0 L 0.125 -6.765625 L 1.953125 -6.765625 L 2.734375 -3.765625 C 2.859375 -3.234375 2.988281 -2.492188 3.125 -1.546875 L 3.15625 -1.546875 C 3.175781 -1.859375 3.25 -2.34375 3.375 -3 L 3.46875 -3.515625 L 4.296875 -6.765625 L 6.328125 -6.765625 L 7.125 -3.515625 C 7.144531 -3.429688 7.171875 -3.300781 7.203125 -3.125 C 7.234375 -2.957031 7.265625 -2.773438 7.296875 -2.578125 C 7.328125 -2.378906 7.351562 -2.1875 7.375 -2 C 7.40625 -1.8125 7.425781 -1.660156 7.4375 -1.546875 L 7.46875 -1.546875 C 7.507812 -1.835938 7.570312 -2.234375 7.65625 -2.734375 C 7.75 -3.242188 7.816406 -3.585938 7.859375 -3.765625 L 8.671875 -6.765625 L 10.484375 -6.765625 L 8.53125 0 Z M 6.53125 0 "/></g></g></g></svg>